# xmcd CD database file
#
# Track frame offsets:
#	150
#	11427
#	24672
#	37262
#	51102
#	61675
#	74610
#	88350
#	101917
#	114482
#	127422
#	140900
#
# Disc length: 2057 seconds
#
# Revision: 2
# Processed by: cddbd v1.5.2PL0 Copyright (c) Steve Scherf et al.
# Submitted via: CDex 1.51
#
DISCID=bb08070c
DTITLE=Musica Ecuatoriana - Duos Femininos
DYEAR=2005
DGENRE=Folk
TTITLE0=Angel de luz - Hnas.Mendoza Suasti
TTITLE1=Las tres Marias - Hnas.Mendoza Sangurima
TTITLE2=Dios da,Dios quita - Hnas.Lopez Ron
TTITLE3=Hasta cuando corazon - Duo Las Ecuatorianas
TTITLE4=Viejo ponchito - Hnas.Mendoza Suasti
TTITLE5=Las cartas - Hnas.Mendoza Sangurima
TTITLE6=Paloma linda - Hnas.Lopez Ron
TTITLE7=Apasionadamente - Duo Las Ecuatorianas
TTITLE8=Si asi me quieres - Hnas.Mendoza Suasti
TTITLE9=Ay pobre amor - Hnas.Mendoza Sangurima
TTITLE10=La romera - Hnas.Lopez Ron
TTITLE11=Deseos - Duo Las Ecuatorianas
EXTD=YEAR: 2005
EXTT0=
EXTT1=
EXTT2=
EXTT3=
EXTT4=
EXTT5=
EXTT6=
EXTT7=
EXTT8=
EXTT9=
EXTT10=
EXTT11=
PLAYORDER=
